<svg xmlns="http://www.w3.org/2000/svg" xmlns:xlink="http://www.w3.org/1999/xlink" contentStyleType="text/css" data-diagram-type="SEQUENCE" height="518px" preserveAspectRatio="none" style="width:840px;height:518px;background:#FFFFFF;" version="1.1" viewBox="0 0 840 518" width="840px" zoomAndPan="magnify"><defs/><g><g><title>Main.Class</title><rect fill="#FFFFFF" height="422.8223" style="stroke:#181818;stroke-width:1;" width="10" x="56.6206" y="48.6211"/></g><g><title>tasks.TasksList</title><rect fill="#FFFFFF" height="64.9121" style="stroke:#181818;stroke-width:1;" width="10" x="421.2383" y="108.2031"/></g><g><title>tasks.TasksList</title><rect fill="#FFFFFF" height="155.1641" style="stroke:#181818;stroke-width:1;" width="10" x="421.2383" y="237.6973"/></g><g><title>tasks.TasksList</title><rect fill="#FFFFFF" height="47.291" style="stroke:#181818;stroke-width:1;" width="10" x="421.2383" y="424.1523"/></g><g><title>toDo. Task</title><rect fill="#FFFFFF" height="30" style="stroke:#181818;stroke-width:1;" width="10" x="698.5376" y="268.9883"/></g><g><title>toDo. Task</title><rect fill="#FFFFFF" height="31.291" style="stroke:#181818;stroke-width:1;" width="10" x="698.5376" y="330.2793"/></g><rect fill="none" height="125.4941" style="stroke:#000000;stroke-width:1.5;" width="481.083" x="10" y="55.6211"/><rect fill="none" height="268.3281" style="stroke:#000000;stroke-width:1.5;" width="824.4028" x="10" y="195.1152"/><g><title>Main.Class</title><rect fill="#000000" fill-opacity="0.00000" height="441.8223" width="8" x="57.6206" y="38.6211"/><line style="stroke:#181818;stroke-width:0.5;stroke-dasharray:5,5;" x1="61" x2="61" y1="38.6211" y2="480.4434"/></g><g><title>tasks.TasksList</title><rect fill="#000000" fill-opacity="0.00000" height="373.7207" width="8" x="422.2383" y="106.7227"/><line style="stroke:#181818;stroke-width:0.5;stroke-dasharray:5,5;" x1="425.3936" x2="425.3936" y1="106.7227" y2="480.4434"/></g><g><title>toDo. Task</title><rect fill="#000000" fill-opacity="0.00000" height="441.8223" width="8" x="699.5376" y="38.6211"/><line style="stroke:#181818;stroke-width:0.5;stroke-dasharray:5,5;" x1="702.6929" x2="702.6929" y1="38.6211" y2="480.4434"/></g><g><title>null.Task</title><rect fill="#000000" fill-opacity="0.00000" height="441.8223" width="8" x="785.3926" y="38.6211"/><line style="stroke:#181818;stroke-width:0.5;stroke-dasharray:5,5;" x1="789.3823" x2="789.3823" y1="38.6211" y2="480.4434"/></g><g class="participant participant-head" data-participant="Main.Class"><rect fill="#E2E2F0" height="32.6211" rx="2.5" ry="2.5" style="stroke:#181818;stroke-width:0.5;" width="83.2412" x="20" y="5"/><text fill="#000000" font-family="sans-serif" font-size="14" lengthAdjust="spacing" textLength="69.2412" x="27" y="27.1074">Main.Class</text></g><g class="participant participant-tail" data-participant="Main.Class"><rect fill="#E2E2F0" height="32.6211" rx="2.5" ry="2.5" style="stroke:#181818;stroke-width:0.5;" width="83.2412" x="20" y="479.4434"/><text fill="#000000" font-family="sans-serif" font-size="14" lengthAdjust="spacing" textLength="69.2412" x="27" y="501.5508">Main.Class</text></g><g class="participant participant-tail" data-participant="tasks.TasksList"><rect fill="#E2E2F0" height="32.6211" rx="2.5" ry="2.5" style="stroke:#181818;stroke-width:0.5;" width="109.6895" x="371.3936" y="479.4434"/><text fill="#000000" font-family="sans-serif" font-size="14" lengthAdjust="spacing" textLength="95.6895" x="378.3936" y="501.5508">tasks:TasksList</text></g><g class="participant participant-head" data-participant="toDo. Task"><rect fill="#E2E2F0" height="32.6211" rx="2.5" ry="2.5" style="stroke:#181818;stroke-width:0.5;" width="81.6895" x="662.6929" y="5"/><text fill="#000000" font-family="sans-serif" font-size="14" lengthAdjust="spacing" textLength="67.6895" x="669.6929" y="27.1074">toDo: Task</text></g><g class="participant participant-tail" data-participant="toDo. Task"><rect fill="#E2E2F0" height="32.6211" rx="2.5" ry="2.5" style="stroke:#181818;stroke-width:0.5;" width="81.6895" x="662.6929" y="479.4434"/><text fill="#000000" font-family="sans-serif" font-size="14" lengthAdjust="spacing" textLength="67.6895" x="669.6929" y="501.5508">toDo: Task</text></g><g class="participant participant-head" data-participant="null.Task"><rect fill="#E2E2F0" height="32.6211" rx="2.5" ry="2.5" style="stroke:#181818;stroke-width:0.5;" width="70.0205" x="754.3823" y="5"/><text fill="#000000" font-family="sans-serif" font-size="14" lengthAdjust="spacing" textLength="56.0205" x="761.3823" y="27.1074">null:Task</text></g><g class="participant participant-tail" data-participant="null.Task"><rect fill="#E2E2F0" height="32.6211" rx="2.5" ry="2.5" style="stroke:#181818;stroke-width:0.5;" width="70.0205" x="754.3823" y="479.4434"/><text fill="#000000" font-family="sans-serif" font-size="14" lengthAdjust="spacing" textLength="56.0205" x="761.3823" y="501.5508">null:Task</text></g><g><title>Main.Class</title><rect fill="#FFFFFF" height="422.8223" style="stroke:#181818;stroke-width:1;" width="10" x="56.6206" y="48.6211"/></g><g><title>tasks.TasksList</title><rect fill="#FFFFFF" height="64.9121" style="stroke:#181818;stroke-width:1;" width="10" x="421.2383" y="108.2031"/></g><g><title>tasks.TasksList</title><rect fill="#FFFFFF" height="155.1641" style="stroke:#181818;stroke-width:1;" width="10" x="421.2383" y="237.6973"/></g><g><title>tasks.TasksList</title><rect fill="#FFFFFF" height="47.291" style="stroke:#181818;stroke-width:1;" width="10" x="421.2383" y="424.1523"/></g><g><title>toDo. Task</title><rect fill="#FFFFFF" height="30" style="stroke:#181818;stroke-width:1;" width="10" x="698.5376" y="268.9883"/></g><g><title>toDo. Task</title><rect fill="#FFFFFF" height="31.291" style="stroke:#181818;stroke-width:1;" width="10" x="698.5376" y="330.2793"/></g><path d="M10,55.6211 L130.8418,55.6211 L130.8418,64.9121 L120.8418,74.9121 L10,74.9121 L10,55.6211" fill="#EEEEEE" style="stroke:#000000;stroke-width:1.5;"/><rect fill="none" height="125.4941" style="stroke:#000000;stroke-width:1.5;" width="481.083" x="10" y="55.6211"/><text fill="#000000" font-family="sans-serif" font-size="13" font-weight="bold" lengthAdjust="spacing" textLength="75.8418" x="25" y="70.6494">initialisation</text><g class="message" data-participant-1="Main.Class" data-participant-2="tasks.TasksList"><line style="stroke:#181818;stroke-width:1;" x1="369.3936" x2="359.3936" y1="98.2031" y2="94.2031"/><line style="stroke:#181818;stroke-width:1;" x1="369.3936" x2="359.3936" y1="98.2031" y2="102.2031"/><line style="stroke:#181818;stroke-width:1;stroke-dasharray:2,2;" x1="66.6206" x2="370.3936" y1="98.2031" y2="98.2031"/><text fill="#000000" font-family="sans-serif" font-size="13" lengthAdjust="spacing" textLength="120.6499" x="73.6206" y="92.9404">&#171;Create&#187; TasksList()</text></g><rect fill="#E2E2F0" height="32.6211" rx="2.5" ry="2.5" style="stroke:#181818;stroke-width:0.5;" width="109.6895" x="371.3936" y="74.9121"/><text fill="#000000" font-family="sans-serif" font-size="14" lengthAdjust="spacing" textLength="95.6895" x="378.3936" y="97.0195">tasks:TasksList</text><g class="message" data-participant-1="Main.Class" data-participant-2="tasks.TasksList"><polygon fill="#181818" points="409.2383,137.8242,419.2383,141.8242,409.2383,145.8242,413.2383,141.8242" style="stroke:#181818;stroke-width:1;"/><line style="stroke:#181818;stroke-width:1;" x1="66.6206" x2="415.2383" y1="141.8242" y2="141.8242"/><text fill="#000000" font-family="sans-serif" font-size="13" lengthAdjust="spacing" textLength="330.6177" x="73.6206" y="136.5615">add("P21", Task("Apprendre les questions des cours", 1))</text></g><g class="message" data-participant-1="Main.Class" data-participant-2="tasks.TasksList"><polygon fill="#181818" points="414.2383,169.1152,424.2383,173.1152,414.2383,177.1152,418.2383,173.1152" style="stroke:#181818;stroke-width:1;"/><line style="stroke:#181818;stroke-width:1;" x1="66.6206" x2="420.2383" y1="173.1152" y2="173.1152"/><text fill="#000000" font-family="sans-serif" font-size="13" lengthAdjust="spacing" textLength="269.147" x="73.6206" y="167.8525">add("P21", Task("Finir le diagramme UML", 1))</text></g><path d="M10,195.1152 L100.5127,195.1152 L100.5127,204.4063 L90.5127,214.4063 L10,214.4063 L10,195.1152" fill="#EEEEEE" style="stroke:#000000;stroke-width:1.5;"/><rect fill="none" height="268.3281" style="stroke:#000000;stroke-width:1.5;" width="824.4028" x="10" y="195.1152"/><text fill="#000000" font-family="sans-serif" font-size="13" font-weight="bold" lengthAdjust="spacing" textLength="45.5127" x="25" y="210.1436">doTask</text><g class="message" data-participant-1="Main.Class" data-participant-2="tasks.TasksList"><polygon fill="#181818" points="409.2383,233.6973,419.2383,237.6973,409.2383,241.6973,413.2383,237.6973" style="stroke:#181818;stroke-width:1;"/><line style="stroke:#181818;stroke-width:1;" x1="66.6206" x2="415.2383" y1="237.6973" y2="237.6973"/><text fill="#000000" font-family="sans-serif" font-size="13" lengthAdjust="spacing" textLength="83.6494" x="73.6206" y="232.4346">doTask("P21")</text></g><g class="message" data-participant-1="tasks.TasksList" data-participant-2="toDo. Task"><polygon fill="#181818" points="686.5376,264.9883,696.5376,268.9883,686.5376,272.9883,690.5376,268.9883" style="stroke:#181818;stroke-width:1;"/><line style="stroke:#181818;stroke-width:1;" x1="431.2383" x2="692.5376" y1="268.9883" y2="268.9883"/><text fill="#000000" font-family="sans-serif" font-size="13" lengthAdjust="spacing" textLength="30.3418" x="438.2383" y="263.7256">doIt()</text></g><g class="message" data-participant-1="tasks.TasksList" data-participant-2="toDo. Task"><polygon fill="#181818" points="686.5376,326.2793,696.5376,330.2793,686.5376,334.2793,690.5376,330.2793" style="stroke:#181818;stroke-width:1;"/><line style="stroke:#181818;stroke-width:1;" x1="431.2383" x2="692.5376" y1="330.2793" y2="330.2793"/><text fill="#000000" font-family="sans-serif" font-size="13" lengthAdjust="spacing" textLength="91.7554" x="438.2383" y="325.0166">getDescription()</text></g><g class="message" data-participant-1="toDo. Task" data-participant-2="tasks.TasksList"><polygon fill="#181818" points="442.2383,357.5703,432.2383,361.5703,442.2383,365.5703,438.2383,361.5703" style="stroke:#181818;stroke-width:1;"/><line style="stroke:#181818;stroke-width:1;" x1="436.2383" x2="702.5376" y1="361.5703" y2="361.5703"/><text fill="#000000" font-family="sans-serif" font-size="13" lengthAdjust="spacing" textLength="243.2993" x="448.2383" y="356.3076">getDescription():"Finir le diagramme UML"</text></g><g class="message" data-participant-1="tasks.TasksList" data-participant-2="Main.Class"><polygon fill="#181818" points="77.6206,388.8613,67.6206,392.8613,77.6206,396.8613,73.6206,392.8613" style="stroke:#181818;stroke-width:1;"/><line style="stroke:#181818;stroke-width:1;" x1="71.6206" x2="425.2383" y1="392.8613" y2="392.8613"/><text fill="#000000" font-family="sans-serif" font-size="13" lengthAdjust="spacing" textLength="206.4448" x="83.6206" y="387.5986">doTask(): "Finir le diagramme UML"</text></g><g class="message" data-participant-1="Main.Class" data-participant-2="tasks.TasksList"><polygon fill="#181818" points="409.2383,420.1523,419.2383,424.1523,409.2383,428.1523,413.2383,424.1523" style="stroke:#181818;stroke-width:1;"/><line style="stroke:#181818;stroke-width:1;" x1="66.6206" x2="415.2383" y1="424.1523" y2="424.1523"/><text fill="#000000" font-family="sans-serif" font-size="13" lengthAdjust="spacing" textLength="83.6494" x="73.6206" y="418.8896">doTask("P21")</text></g><g class="message" data-participant-1="tasks.TasksList" data-participant-2="null.Task"><polygon fill="#181818" points="777.3926,451.4434,787.3926,455.4434,777.3926,459.4434,781.3926,455.4434" style="stroke:#181818;stroke-width:1;"/><line style="stroke:#181818;stroke-width:1;" x1="431.2383" x2="783.3926" y1="455.4434" y2="455.4434"/><text fill="#000000" font-family="sans-serif" font-size="13" lengthAdjust="spacing" textLength="30.3418" x="438.2383" y="450.1807">doIt()</text></g><!--SRC=[lLD1QiCm4Bph5OjFDZG5fptf42W9XK82FRGFM2GHH1L9bUH-ga_eBI-hv3IkOZkDoQ4w6AGPpSxko9wX4b0JOj45oQH57M23Kjyk5NeFnd7X8fx3HK3_vkbB-gwb3yKFQzvZcPMXa5X7mjqfGJTAqHo_9yY2_C0WCWk4R9rfB4WjWqGbFGPfD86uc1E9E_3JWbaJizbYCUAQmlvpsKhilw0xBwlsUkVailguDd9U5i_pkhXfjSlYmLedD7S2bF3mtWYV6l70uuwPnld8hAlgMld7E20NfO5Bt3hSxGIyRjQP9XT_z4IYi-EakKa0cMZam3vucJIweKYhdBsM9Feq4iGlPTXG3vjIP2l2IdZcf4r1N2ntSllCCFgIz5mirpMGfT4Dlg8mlSWWzd_DEFlXkuZJk_i6]--></g></svg>