<svg xmlns="http://www.w3.org/2000/svg" xmlns:xlink="http://www.w3.org/1999/xlink" contentStyleType="text/css" data-diagram-type="CLASS" height="415px" preserveAspectRatio="none" style="width:604px;height:415px;background:#FFFFFF;" version="1.1" viewBox="0 0 604 415" width="604px" zoomAndPan="magnify"><defs/><g><!--cluster sort--><g class="cluster" data-entity="sort" data-uid="ent0002" id="cluster_sort"><polygon fill="none" points="16,287.5,50.0559,287.5,57.0559,312.5679,206,312.5679,206,397.5,16,397.5,16,287.5" style="stroke:#000000;stroke-width:1.5;"/><line style="stroke:#000000;stroke-width:1.5;" x1="16" x2="57.0559" y1="312.5679" y2="312.5679"/><text fill="#000000" font-family="sans-serif" font-size="14" font-weight="bold" lengthAdjust="spacing" textLength="28.0559" x="20" y="304.4659">sort</text></g><!--cluster java--><g class="cluster" data-entity="java" data-source-line="17" data-uid="ent0006" id="cluster_java"><polygon fill="none" points="230,255,265.1479,255,272.1479,280.0679,587,280.0679,587,408,230,408,230,255" style="stroke:#000000;stroke-width:1.5;"/><line style="stroke:#000000;stroke-width:1.5;" x1="230" x2="272.1479" y1="280.0679" y2="280.0679"/><text fill="#000000" font-family="sans-serif" font-size="14" font-weight="bold" lengthAdjust="spacing" textLength="29.1479" x="234" y="271.9659">java</text></g><!--cluster util--><g class="cluster" data-entity="util" data-uid="ent0004" id="cluster_util"><polygon fill="none" points="451,301,480.8139,301,487.8139,326.0679,563,326.0679,563,384,451,384,451,301" style="stroke:#000000;stroke-width:1.5;"/><line style="stroke:#000000;stroke-width:1.5;" x1="451" x2="487.8139" y1="326.0679" y2="326.0679"/><text fill="#000000" font-family="sans-serif" font-size="14" font-weight="bold" lengthAdjust="spacing" textLength="23.8139" x="455" y="317.9659">util</text></g><!--cluster lang--><g class="cluster" data-entity="lang" data-uid="ent0011" id="cluster_lang"><polygon fill="none" points="254,301,290.7859,301,297.7859,326.0679,427,326.0679,427,384,254,384,254,301" style="stroke:#000000;stroke-width:1.5;"/><line style="stroke:#000000;stroke-width:1.5;" x1="254" x2="297.7859" y1="326.0679" y2="326.0679"/><text fill="#000000" font-family="sans-serif" font-size="14" font-weight="bold" lengthAdjust="spacing" textLength="30.7859" x="258" y="317.9659">lang</text></g><!--class Sort--><g class="entity" data-entity="Sort" data-source-line="9" data-uid="ent0003" id="entity_Sort"><rect fill="#F1F1F1" height="56.1358" rx="2.5" ry="2.5" style="stroke:#181818;stroke-width:0.5;" width="156.5635" x="32.5" y="325.5"/><text fill="#000000" font-family="sans-serif" font-size="14" font-weight="bold" lengthAdjust="spacing" textLength="28.8119" x="96.3758" y="345.4659">Sort</text><line style="stroke:#181818;stroke-width:0.5;" x1="33.5" x2="188.0635" y1="354.5679" y2="354.5679"/><text fill="#000000" font-family="sans-serif" font-size="14" lengthAdjust="spacing" text-decoration="underline" textLength="144.5635" x="38.5" y="373.5339">+T[*] sort (array : T[*])</text></g><!--class ArrayList--><g class="entity" data-entity="ArrayList" data-source-line="17" data-uid="ent0005" id="entity_ArrayList"><rect fill="#F1F1F1" height="29.0679" rx="2.5" ry="2.5" style="stroke:#181818;stroke-width:0.5;" width="80.0198" x="467" y="339"/><text fill="#000000" font-family="sans-serif" font-size="14" font-weight="bold" lengthAdjust="spacing" textLength="64.0078" x="470" y="358.9659">ArrayList</text><rect fill="#FFFFFF" height="18.3441" style="stroke:#181818;stroke-width:1;stroke-dasharray:2,2;" width="8.012" x="542.0078" y="336"/><text fill="#000000" font-family="sans-serif" font-size="12" font-style="italic" lengthAdjust="spacing" textLength="6.012" x="543.0078" y="349.8281">T</text></g><!--class Integer--><g class="entity" data-entity="Integer" data-source-line="33" data-uid="ent0012" id="entity_Integer"><rect fill="#F1F1F1" height="29.0679" rx="2.5" ry="2.5" style="stroke:#181818;stroke-width:0.5;" width="58.4858" x="353" y="339"/><text fill="#000000" font-family="sans-serif" font-size="14" font-weight="bold" lengthAdjust="spacing" textLength="52.4858" x="356" y="358.9659">Integer</text></g><!--class String--><g class="entity" data-entity="String" data-source-line="37" data-uid="ent0013" id="entity_String"><rect fill="#F1F1F1" height="29.0679" rx="2.5" ry="2.5" style="stroke:#181818;stroke-width:0.5;" width="48.4758" x="270" y="339"/><text fill="#000000" font-family="sans-serif" font-size="14" font-weight="bold" lengthAdjust="spacing" textLength="42.4758" x="273" y="358.9659">String</text></g><!--class ArrayList<Integer>--><g class="entity" data-entity="ArrayList.Integer." data-source-line="20" data-uid="ent0007" id="entity_ArrayList.Integer."><rect fill="#F1F1F1" height="29.0679" rx="2.5" ry="2.5" style="stroke:#181818;stroke-width:0.5;" width="138.5095" x="336.5" y="161"/><text fill="#000000" font-family="sans-serif" font-size="14" font-weight="bold" lengthAdjust="spacing" textLength="132.5095" x="339.5" y="180.9659">ArrayList&lt;Integer&gt;</text></g><!--class ArrayList<String>--><g class="entity" data-entity="ArrayList.String." data-source-line="24" data-uid="ent0008" id="entity_ArrayList.String."><rect fill="#F1F1F1" height="29.0679" rx="2.5" ry="2.5" style="stroke:#181818;stroke-width:0.5;" width="128.4995" x="153" y="161"/><text fill="#000000" font-family="sans-serif" font-size="14" font-weight="bold" lengthAdjust="spacing" textLength="122.4995" x="156" y="180.9659">ArrayList&lt;String&gt;</text></g><!--class Main--><g class="entity" data-entity="Main" data-source-line="42" data-uid="ent0014" id="entity_Main"><rect fill="#F1F1F1" height="75.2038" rx="2.5" ry="2.5" style="stroke:#181818;stroke-width:0.5;" width="161.1694" x="220.5" y="7"/><text fill="#000000" font-family="sans-serif" font-size="14" font-weight="bold" lengthAdjust="spacing" textLength="35.1259" x="283.5218" y="26.9659">Main</text><line style="stroke:#181818;stroke-width:0.5;" x1="221.5" x2="380.6694" y1="36.0679" y2="36.0679"/><text fill="#000000" font-family="sans-serif" font-size="14" lengthAdjust="spacing" text-decoration="underline" textLength="81.8577" x="226.5" y="55.0339">+Exercise4 ()</text><text fill="#000000" font-family="sans-serif" font-size="14" lengthAdjust="spacing" text-decoration="underline" textLength="149.1694" x="226.5" y="74.1018">+Main (args : String[*])</text></g><!--link ArrayList<Integer> to ArrayList--><g class="link" data-entity-1="ArrayList.Integer." data-entity-2="ArrayList" data-source-line="28" data-uid="lnk9" id="link_ArrayList.Integer._ArrayList"><path codeLine="28" d="M422.19,190.19 C430.95,198.22 441.49,208.93 449,220 C475.93,259.69 493.1446,308.1912 501.0746,333.1712" fill="none" id="ArrayList&lt;Integer&gt;-to-ArrayList" style="stroke:#181818;stroke-width:1;stroke-dasharray:7,7;"/><polygon fill="#181818" points="502.89,338.89,503.9793,329.1016,501.3771,334.1244,496.3543,331.5222,502.89,338.89" style="stroke:#181818;stroke-width:1;"/><text fill="#000000" font-family="sans-serif" font-size="13" lengthAdjust="spacing" textLength="46.8391" x="460" y="234.897">&#171;binds&#187;</text><text fill="#000000" font-family="sans-serif" font-size="13" lengthAdjust="spacing" textLength="64.0121" x="514.0801" y="234.897">T-&gt;Integer</text></g><!--link ArrayList<String> to ArrayList--><g class="link" data-entity-1="ArrayList.String." data-entity-2="ArrayList" data-source-line="29" data-uid="lnk10" id="link_ArrayList.String._ArrayList"><path codeLine="29" d="M216.18,190.17 C216.14,204.77 218.64,227.37 233,239 C249.77,252.58 407.88,237.01 427,247 C465.5,267.12 488.3142,309.5611 498.8942,333.2611" fill="none" id="ArrayList&lt;String&gt;-to-ArrayList" style="stroke:#181818;stroke-width:1;stroke-dasharray:7,7;"/><polygon fill="#181818" points="501.34,338.74,501.3238,328.8912,499.3018,334.1743,494.0187,332.1523,501.34,338.74" style="stroke:#181818;stroke-width:1;"/><text fill="#000000" font-family="sans-serif" font-size="13" lengthAdjust="spacing" textLength="46.8391" x="234" y="234.897">&#171;binds&#187;</text><text fill="#000000" font-family="sans-serif" font-size="13" lengthAdjust="spacing" textLength="55.4321" x="288.0801" y="234.897">T-&gt;String</text></g><!--link Main to ArrayList<Integer>--><g class="link" data-entity-1="Main" data-entity-2="ArrayList.Integer." data-source-line="48" data-uid="lnk15" id="link_Main_ArrayList.Integer."><path codeLine="48" d="M330.81,82.12 C352.15,108.34 375.9041,137.5152 391.0241,156.1052" fill="none" id="Main-to-ArrayList&lt;Integer&gt;" style="stroke:#181818;stroke-width:1;stroke-dasharray:7,7;"/><polygon fill="#181818" points="394.81,160.76,392.2343,151.2539,391.6551,156.881,386.028,156.3018,394.81,160.76" style="stroke:#181818;stroke-width:1;"/><text fill="#000000" font-family="sans-serif" font-size="13" lengthAdjust="spacing" textLength="78.2341" x="370" y="126.897">&#171;instantiate&#187;</text></g><!--link Main to ArrayList<String>--><g class="link" data-entity-1="Main" data-entity-2="ArrayList.String." data-source-line="49" data-uid="lnk16" id="link_Main_ArrayList.String."><path codeLine="49" d="M277.15,82.12 C260.08,108.34 241.3231,137.1414 229.2231,155.7314" fill="none" id="Main-to-ArrayList&lt;String&gt;" style="stroke:#181818;stroke-width:1;stroke-dasharray:7,7;"/><polygon fill="#181818" points="225.95,160.76,234.212,155.3991,228.6776,156.5695,227.5072,151.035,225.95,160.76" style="stroke:#181818;stroke-width:1;"/><text fill="#000000" font-family="sans-serif" font-size="13" lengthAdjust="spacing" textLength="78.2341" x="257" y="126.897">&#171;instantiate&#187;</text></g><!--link ArrayList<Integer> to Sort--><g class="link" data-entity-1="ArrayList.Integer." data-entity-2="Sort" data-source-line="50" data-uid="lnk17" id="link_ArrayList.Integer._Sort"><path codeLine="50" d="M397.72,190.25 C387.92,205.15 370.09,228.23 348,239 C310.32,257.38 293.24,232.22 254,247 C208.53,264.13 169.259,296.0082 142.399,321.1682" fill="none" id="ArrayList&lt;Integer&gt;-to-Sort" style="stroke:#181818;stroke-width:1;stroke-dasharray:7,7;"/><polygon fill="#181818" points="138.02,325.27,147.323,322.0366,141.6691,321.8518,141.8539,316.198,138.02,325.27" style="stroke:#181818;stroke-width:1;"/><text fill="#000000" font-family="sans-serif" font-size="13" lengthAdjust="spacing" textLength="33.475" x="373" y="234.897">&#171;call&#187;</text></g><!--link ArrayList<String> to Sort--><g class="link" data-entity-1="ArrayList.String." data-entity-2="Sort" data-source-line="51" data-uid="lnk18" id="link_ArrayList.String._Sort"><path codeLine="51" d="M190.14,190.13 C177.92,197.51 164.19,207.66 155,220 C131.41,251.69 121.0875,290.8457 115.9275,319.3857" fill="none" id="ArrayList&lt;String&gt;-to-Sort" style="stroke:#181818;stroke-width:1;stroke-dasharray:7,7;"/><polygon fill="#181818" points="114.86,325.29,120.3974,317.1452,115.7496,320.3698,112.525,315.7219,114.86,325.29" style="stroke:#181818;stroke-width:1;"/><text fill="#000000" font-family="sans-serif" font-size="13" lengthAdjust="spacing" textLength="33.475" x="156" y="234.897">&#171;call&#187;</text></g><!--link ArrayList<Integer> to Integer--><g class="link" data-entity-1="ArrayList.Integer." data-entity-2="Integer" data-source-line="52" data-uid="lnk19" id="link_ArrayList.Integer._Integer"><path codeLine="52" d="M412.88,190.21 C416.69,198.59 421.05,209.64 423,220 C424.56,228.3 424.46,230.68 423,239 C416.42,276.56 401.0367,312.652 391.2067,333.522" fill="none" id="ArrayList&lt;Integer&gt;-to-Integer" style="stroke:#181818;stroke-width:1;stroke-dasharray:7,7;"/><polygon fill="#181818" points="388.65,338.95,396.1037,332.5124,390.7806,334.4266,388.8663,329.1035,388.65,338.95" style="stroke:#181818;stroke-width:1;"/></g><!--link ArrayList<String> to String--><g class="link" data-entity-1="ArrayList.String." data-entity-2="String" data-source-line="53" data-uid="lnk20" id="link_ArrayList.String._String"><path codeLine="53" d="M208.52,190.11 C201.67,202.9 194.05,222.5 200,239 C201.08,241.99 253.4141,304.3314 278.3941,333.9814" fill="none" id="ArrayList&lt;String&gt;-to-String" style="stroke:#181818;stroke-width:1;stroke-dasharray:7,7;"/><polygon fill="#181818" points="282.26,338.57,279.5203,329.1099,279.0384,334.7462,273.4021,334.2644,282.26,338.57" style="stroke:#181818;stroke-width:1;"/></g><!--SRC=[ZL9DJm8n4BttLpHS10t5WoT2cc2Y2OcUbfjw6BhDKkbsD-rWHC9_j-q2-y4QwMdtpNjlEczwiqOitNGoAJKOtEQQYIAV20tEZLC5cOMSk8qo9VWl6l4vebMhBSg5A4oYVYIzxrAU2uC9xhIaZuLE6rKNGUSDH6X6rYgLLEObxcWkyvMqZf0In0OopoeiaZsX_aHJcWGW_5PWE7Tqxn1GYGDTljr-H0qTWhMmezC8ZIBtG0wryITy0TkYqYttUH2zA8Up9G_i2XtKyCAWpAJb0o_hgoT-AfETodr2oXYlkxCpmrzrDbifaphEtt4vvaS5wN6_sgCITARsIyvQKvywrR7wkpSYhqoQrVFehw3CqQknXgTlQOLoye4EHzrQK8JjPCxVjhAE6_AMiHH6wyqjpAQCjp6e02NdlVnpH9VqFxSH7WmB3okA16ZTPhTY_u_Si-WGEBjgdP5vpFiN]--></g></svg>